<svg xmlns="http://www.w3.org/2000/svg" viewBox="0 0 512 512">
  <defs>
    <linearGradient id="bg" x1="0" y1="0" x2="1" y2="1">
      <stop offset="0%" stop-color="#8FD47A"/>
      <stop offset="100%" stop-color="#42C4C0"/>
    </linearGradient>
  </defs>
  <!-- 背景 -->
  <rect width="512" height="512" rx="112" ry="112" fill="url(#bg)"/>
  <!-- スマートフォン本体 -->
  <rect x="152" y="60" width="208" height="392" rx="28" ry="28"
        fill="none" stroke="white" stroke-width="12"/>
  <!-- ノッチ -->
  <rect x="202" y="82" width="108" height="20" rx="10" ry="10" fill="white"/>
  <!-- 画面内：地図ピン -->
  <circle cx="256" cy="210" r="28" fill="none" stroke="white" stroke-width="10"/>
  <line x1="256" y1="238" x2="256" y2="272" stroke="white" stroke-width="10" stroke-linecap="round"/>
  <!-- 画面内：テキストライン -->
  <rect x="190" y="290" width="124" height="10" rx="5" fill="white" opacity="0.9"/>
  <rect x="200" y="312" width="100" height="10" rx="5" fill="white" opacity="0.7"/>
  <rect x="208" y="334" width="84" height="10" rx="5" fill="white" opacity="0.5"/>
  <!-- 画面内：ボタン -->
  <rect x="200" y="360" width="112" height="36" rx="18" fill="white" opacity="0.9"/>
  <!-- 飛行機（右上） -->
  <g transform="translate(344,118) rotate(-35)" fill="white">
    <path d="M0,-22 L6,-8 L22,-8 L10,2 L14,18 L0,10 L-14,18 L-10,2 L-22,-8 L-6,-8 Z"/>
  </g>
</svg>
